<svg id="Layer_1" data-name="Layer 1" xmlns="http://www.w3.org/2000/svg" viewBox="0 0 353.6555 496.6299"><defs><style>.cls-1{fill:#f7941d;}</style></defs><path class="cls-1" d="M389.6113,274.6049c-7.9771-22.0064-16.9244-43.6894-24.8554-65.7266-7.4535-20.8051-8.6239-42.365-1.91-63.4012,4.82-15.0457,12.2275-29.2752,18.4953-43.8588.4.1694.8161.3387,1.2165.5081,3.7884-6.8837,7.7154-13.7366,11.3806-20.6973,9.979-18.9419,6.976-42.6423-9.6558-56.1634-11.288-9.1629-24.7783-16.0929-38.1608-21.9909-10.9493-4.8356-25.0248,1.8941-31.3388,12.289-8.7625,14.3834-3.9115,31.5852,11.3651,40.3784,9.2245,5.313,10.5951,10.0716,5.5286,19.3731-3.3264,6.0521-6.5449,12.1967-10.0716,18.1257-16.2468,27.4579-39.6546,45.5989-70.8547,52.8061-18.3413,4.22-36.99,7.0377-55.3164,11.2111-15.138,3.4342-30.4608,6.7452-44.9368,12.1813C82.23,195.25,40.8352,261.3919,49.5977,333.725,58.36,406.0428,99.3084,455.3224,165.497,483.52c44.86,19.0958,90.89,19.758,136.3042,1.6323,47.5548-18.9726,79.833-53.0833,94.2626-102.563C406.7359,346.06,402.3932,309.9015,389.6113,274.6049Zm-104.8731-7.2071c3.2648-5.5131,6.9915-6.2831,12.3815-2.5563,10.8877,7.5459,14.43,24.1469,7.6845,36.051-3.48,6.1446-8.1157,6.9454-13.5673,2.3408C280.5494,294.1782,277.8236,279.1017,284.7382,267.3978Zm-64.5409-27.0113c5.1744-9.471,10.7954-9.933,17.3865-1.4014A28.3948,28.3948,0,0,1,238,273.25c-3.6344,4.8972-8.1619,5.2513-12.6895.97C216.24,265.6884,214.1144,251.5359,220.1973,240.3865ZM142.5512,267.69c2.464-4.4659,6.7144-5.6826,11.1957-3.1878,12.15,6.7606,17.4173,24.47,10.9339,36.6825-2.7873,5.2668-6.6989,6.391-11.8733,3.388C140.7956,297.6586,135.8523,279.8409,142.5512,267.69Zm-15.4922,74.828c-3.8962-5.2206-8.47-10.1023-11.5345-15.7849-3.1262-5.8212-.5082-9.9637,5.8365-11.5345,13.4749-3.28,28.89,5.4516,32.8941,18.6184,1.6324,5.3438-.385,8.9473-5.8211,10.4258a27.04,27.04,0,0,1-19.9891-2.7566C127.9829,341.8408,127.5364,342.18,127.059,342.5184ZM164.28,395.1243c-3.2647,5.5132-6.9915,6.2832-12.3814,2.5564-10.8877-7.546-14.43-24.147-7.6845-36.0511,3.48-6.1446,8.1156-6.9454,13.5672-2.3407C168.4693,368.344,171.195,383.42,164.28,395.1243Zm32.4322-48.7868c-13.49,3.9424-30.0759-5.2821-33.7411-18.7878-1.3706-5.005.6313-8.6393,5.79-9.9945a28.3247,28.3247,0,0,1,33.51,18.295C204.1353,341.3634,202.2719,344.7206,196.7126,346.3375Zm-19.1883-68.8527c-1.2474-5.7442,1.1242-9.8714,6.9762-10.0716,5.7441-.1848,11.55,1.0626,17.3248,1.694,7.238,5.2514,11.95,11.2727,13.9523,19.3114,1.4784,5.8674-.8932,9.1322-6.9145,10.1332C195.1572,300.8309,180.4811,290.96,177.5243,277.4848Zm51.2969,144.6509c-5.1743,9.4709-10.7952,9.9329-17.3864,1.4014a28.395,28.395,0,0,1-.4158-34.2647c3.6344-4.8972,8.162-5.2514,12.69-.97C232.779,396.8337,234.9042,410.9862,228.8212,422.1357Zm35.697-27.0268c-5.7442.1849-11.55-1.0625-17.3248-1.694-7.238-5.2513-11.95-11.2727-13.9523-19.3114-1.4784-5.8673.8931-9.1321,6.9145-10.1331,13.7058-2.2792,28.382,7.5921,31.3387,21.067C272.7417,390.7815,270.37,394.9088,264.5182,395.1089ZM259.7135,342.18a27.0187,27.0187,0,0,1-12.9668-15.5075c-1.8633-5.5132,0-8.87,5.5593-10.4874,13.49-3.9424,30.076,5.2822,33.7412,18.7878,1.3706,5.005-.6315,8.6394-5.79,9.9945A27.2309,27.2309,0,0,1,259.7135,342.18Zm46.7539,52.6522c-2.464,4.466-6.7143,5.6825-11.1957,3.1878-12.1505-6.7606-17.4172-24.47-10.9339-36.6825,2.7874-5.2668,6.6989-6.3909,11.8733-3.3879C308.223,364.8636,313.1663,382.6813,306.4674,394.8317Zm21.19-47.5086c-13.4749,3.28-28.89-5.4515-32.8942-18.6184-1.6324-5.3438.385-8.9474,5.8212-10.4257a27.0392,27.0392,0,0,1,19.989,2.7566c.4619-.3542.9086-.6931,1.386-1.0318,3.8961,5.2206,8.47,10.1023,11.5345,15.7848C336.62,341.61,334.0024,345.7523,327.6577,347.3231Z" transform="translate(-48.4336 -1.6772)"/></svg>